<?xml version="1.0" encoding="UTF-8"?>
<svg xmlns="http://www.w3.org/2000/svg" xmlns:xlink="http://www.w3.org/1999/xlink" width="24px" height="24px" viewBox="0 0 24 24" version="1.1">
<g id="surface1">
<path style=" stroke:none;fill-rule:nonzero;fill:rgb(0%,0%,0%);fill-opacity:1;" d="M 11.109375 0.03125 C 9.332031 0.203125 8.011719 0.578125 6.515625 1.335938 C 4.742188 2.242188 3.15625 3.664062 1.992188 5.390625 C 1.503906 6.121094 0.90625 7.355469 0.613281 8.226562 C 0.382812 8.929688 0.195312 9.730469 0.0859375 10.523438 C 0.00390625 11.078125 0.00390625 12.921875 0.0859375 13.476562 C 0.28125 14.859375 0.648438 16.070312 1.21875 17.226562 C 1.859375 18.539062 2.492188 19.421875 3.535156 20.464844 C 4.570312 21.496094 5.464844 22.140625 6.726562 22.757812 C 7.609375 23.1875 8.175781 23.398438 9.070312 23.625 C 11.414062 24.214844 13.765625 24.101562 16.054688 23.292969 C 16.757812 23.042969 17.96875 22.433594 18.585938 22.023438 C 20 21.074219 21.273438 19.773438 22.191406 18.328125 C 22.527344 17.796875 23.070312 16.671875 23.292969 16.050781 C 24.394531 12.945312 24.203125 9.617188 22.753906 6.707031 C 22.171875 5.535156 21.519531 4.613281 20.605469 3.671875 C 19.601562 2.628906 18.589844 1.894531 17.273438 1.242188 C 15.886719 0.558594 14.59375 0.1875 13.054688 0.046875 C 12.578125 0.00390625 11.492188 -0.00390625 11.109375 0.03125 Z M 13.664062 1.636719 C 16.636719 2.136719 19.152344 3.777344 20.804688 6.300781 C 21.601562 7.507812 22.144531 8.9375 22.390625 10.476562 C 22.503906 11.195312 22.503906 12.804688 22.390625 13.523438 C 21.886719 16.65625 20.171875 19.25 17.507812 20.929688 C 16.367188 21.648438 14.992188 22.152344 13.523438 22.390625 C 12.800781 22.503906 11.195312 22.503906 10.476562 22.386719 C 8.148438 22.007812 6.226562 21.039062 4.589844 19.40625 C 2.972656 17.796875 1.988281 15.851562 1.609375 13.523438 C 1.496094 12.804688 1.496094 11.195312 1.609375 10.476562 C 2.101562 7.445312 3.703125 4.929688 6.214844 3.253906 C 7.648438 2.292969 9.378906 1.691406 11.15625 1.527344 C 11.664062 1.480469 13.117188 1.546875 13.664062 1.636719 Z M 13.664062 1.636719 "/>
<path style=" stroke:none;fill-rule:nonzero;fill:rgb(0%,0%,0%);fill-opacity:1;" d="M 7.917969 7.648438 C 7.609375 7.828125 7.472656 8.222656 7.59375 8.5625 C 7.621094 8.632812 8.386719 9.441406 9.296875 10.34375 L 10.945312 12 L 9.296875 13.648438 C 8.386719 14.558594 7.621094 15.367188 7.59375 15.4375 C 7.46875 15.777344 7.59375 16.125 7.917969 16.34375 C 8.089844 16.460938 8.34375 16.484375 8.5625 16.40625 C 8.632812 16.378906 9.441406 15.613281 10.351562 14.703125 L 12 13.054688 L 13.65625 14.703125 C 14.558594 15.613281 15.367188 16.378906 15.4375 16.40625 C 16.039062 16.625 16.625 16.039062 16.40625 15.4375 C 16.378906 15.367188 15.613281 14.558594 14.703125 13.648438 L 13.054688 12 L 14.703125 10.34375 C 15.613281 9.441406 16.378906 8.632812 16.40625 8.5625 C 16.53125 8.222656 16.386719 7.824219 16.078125 7.644531 C 15.886719 7.539062 15.570312 7.515625 15.40625 7.597656 C 15.351562 7.625 14.558594 8.390625 13.65625 9.296875 L 12 10.945312 L 10.351562 9.296875 C 9.441406 8.386719 8.632812 7.621094 8.5625 7.59375 C 8.359375 7.519531 8.101562 7.539062 7.917969 7.648438 Z M 7.917969 7.648438 "/>
</g>
</svg>
